<mxfile host="app.diagrams.net" agent="Mozilla/5.0 (Macintosh; Intel Mac OS X 10_15_7) AppleWebKit/537.36 (KHTML, like Gecko) Chrome/131.0.0.0 Safari/537.36" version="26.0.4">
  <diagram id="x0qA1Lj4RplWPmRNw9oy" name="第 1 页">
    <mxGraphModel dx="954" dy="488" grid="1" gridSize="10" guides="1" tooltips="1" connect="1" arrows="1" fold="1" page="1" pageScale="1" pageWidth="827" pageHeight="1169" math="0" shadow="0">
      <root>
        <mxCell id="0" />
        <mxCell id="1" parent="0" />
        <mxCell id="J1Hk7OOTRyI66UzLU9G0-3" value="" style="edgeStyle=orthogonalEdgeStyle;rounded=0;orthogonalLoop=1;jettySize=auto;html=1;" edge="1" parent="1" source="J1Hk7OOTRyI66UzLU9G0-1" target="J1Hk7OOTRyI66UzLU9G0-2">
          <mxGeometry relative="1" as="geometry" />
        </mxCell>
        <mxCell id="J1Hk7OOTRyI66UzLU9G0-1" value="定时任务启动" style="rounded=1;whiteSpace=wrap;html=1;" vertex="1" parent="1">
          <mxGeometry x="190" y="60" width="120" height="60" as="geometry" />
        </mxCell>
        <mxCell id="J1Hk7OOTRyI66UzLU9G0-13" value="" style="edgeStyle=orthogonalEdgeStyle;rounded=0;orthogonalLoop=1;jettySize=auto;html=1;" edge="1" parent="1" source="J1Hk7OOTRyI66UzLU9G0-2" target="J1Hk7OOTRyI66UzLU9G0-12">
          <mxGeometry relative="1" as="geometry" />
        </mxCell>
        <mxCell id="J1Hk7OOTRyI66UzLU9G0-2" value="查询复权因子" style="rounded=1;whiteSpace=wrap;html=1;" vertex="1" parent="1">
          <mxGeometry x="190" y="190" width="120" height="60" as="geometry" />
        </mxCell>
        <mxCell id="J1Hk7OOTRyI66UzLU9G0-8" value="" style="edgeStyle=orthogonalEdgeStyle;rounded=0;orthogonalLoop=1;jettySize=auto;html=1;entryX=1;entryY=0.5;entryDx=0;entryDy=0;" edge="1" parent="1" source="J1Hk7OOTRyI66UzLU9G0-7" target="J1Hk7OOTRyI66UzLU9G0-2">
          <mxGeometry relative="1" as="geometry">
            <mxPoint x="320" y="220" as="targetPoint" />
          </mxGeometry>
        </mxCell>
        <mxCell id="J1Hk7OOTRyI66UzLU9G0-7" value="kafka listener&lt;div&gt;监听消息&lt;/div&gt;" style="rounded=1;whiteSpace=wrap;html=1;" vertex="1" parent="1">
          <mxGeometry x="440" y="190" width="120" height="60" as="geometry" />
        </mxCell>
        <mxCell id="J1Hk7OOTRyI66UzLU9G0-10" value="" style="edgeStyle=orthogonalEdgeStyle;rounded=0;orthogonalLoop=1;jettySize=auto;html=1;" edge="1" parent="1" source="J1Hk7OOTRyI66UzLU9G0-9" target="J1Hk7OOTRyI66UzLU9G0-7">
          <mxGeometry relative="1" as="geometry" />
        </mxCell>
        <mxCell id="J1Hk7OOTRyI66UzLU9G0-9" value="实时行情或者档案" style="ellipse;whiteSpace=wrap;html=1;" vertex="1" parent="1">
          <mxGeometry x="440" y="30" width="120" height="80" as="geometry" />
        </mxCell>
        <mxCell id="J1Hk7OOTRyI66UzLU9G0-11" value="自选的20张分表&lt;div&gt;任务表&lt;/div&gt;" style="shape=cylinder3;whiteSpace=wrap;html=1;boundedLbl=1;backgroundOutline=1;size=15;" vertex="1" parent="1">
          <mxGeometry x="414" y="385" width="100" height="130" as="geometry" />
        </mxCell>
        <mxCell id="J1Hk7OOTRyI66UzLU9G0-12" value="扫描20张分表，修改价格&lt;div&gt;同步更新任务表&lt;/div&gt;" style="rounded=1;whiteSpace=wrap;html=1;" vertex="1" parent="1">
          <mxGeometry x="177" y="405" width="145" height="90" as="geometry" />
        </mxCell>
        <mxCell id="J1Hk7OOTRyI66UzLU9G0-17" value="修改价格" style="text;html=1;align=center;verticalAlign=middle;resizable=0;points=[];autosize=1;strokeColor=none;fillColor=none;" vertex="1" parent="1">
          <mxGeometry x="325" y="420" width="70" height="30" as="geometry" />
        </mxCell>
        <mxCell id="J1Hk7OOTRyI66UzLU9G0-23" style="edgeStyle=orthogonalEdgeStyle;rounded=0;orthogonalLoop=1;jettySize=auto;html=1;exitX=1;exitY=0.5;exitDx=0;exitDy=0;entryX=0;entryY=0.5;entryDx=0;entryDy=0;entryPerimeter=0;" edge="1" parent="1" source="J1Hk7OOTRyI66UzLU9G0-12" target="J1Hk7OOTRyI66UzLU9G0-11">
          <mxGeometry relative="1" as="geometry" />
        </mxCell>
        <mxCell id="J1Hk7OOTRyI66UzLU9G0-25" value="" style="edgeStyle=orthogonalEdgeStyle;rounded=0;orthogonalLoop=1;jettySize=auto;html=1;" edge="1" parent="1" source="J1Hk7OOTRyI66UzLU9G0-24" target="J1Hk7OOTRyI66UzLU9G0-2">
          <mxGeometry relative="1" as="geometry" />
        </mxCell>
        <mxCell id="J1Hk7OOTRyI66UzLU9G0-24" value="复权因子服务" style="rounded=1;whiteSpace=wrap;html=1;" vertex="1" parent="1">
          <mxGeometry y="190" width="120" height="60" as="geometry" />
        </mxCell>
      </root>
    </mxGraphModel>
  </diagram>
</mxfile>
